<?xml version="1.0" standalone="no"?><!DOCTYPE svg PUBLIC "-//W3C//DTD SVG 1.1//EN" "http://www.w3.org/Graphics/SVG/1.1/DTD/svg11.dtd"><svg t="1632552201580" class="icon" viewBox="0 0 1024 1024" version="1.1" xmlns="http://www.w3.org/2000/svg" p-id="7925" xmlns:xlink="http://www.w3.org/1999/xlink" width="32" height="32"><defs><style type="text/css"></style></defs><path d="M0 0h1024v1024H0z" fill="#7F8693" fill-opacity="0" p-id="7926"></path><path d="M704 256h-384A64 64 0 0 0 256 320v384A64 64 0 0 0 320 768h384a64 64 0 0 0 64-64v-384A64 64 0 0 0 704 256z m-384 42.666667h384a21.333333 21.333333 0 0 1 21.333333 21.333333v384a21.333333 21.333333 0 0 1-21.333333 21.333333h-384a21.333333 21.333333 0 0 1-21.333333-21.333333v-384a21.333333 21.333333 0 0 1 21.333333-21.333333z" fill="#7F8693" p-id="7927"></path></svg>